<?xml version="1.0" encoding="utf-8"?>
<!-- Generator: Adobe Illustrator 21.1.0, SVG Export Plug-In . SVG Version: 6.00 Build 0)  -->
<svg version="1.1" id="Layer_1" xmlns="http://www.w3.org/2000/svg" xmlns:xlink="http://www.w3.org/1999/xlink" x="0px" y="0px"
	 viewBox="0 0 1280 800" style="enable-background:new 0 0 1280 800;" xml:space="preserve">
<style type="text/css">
	.st0{fill:#FF0000;}
	.st1{fill:#F7931E;}
	.st2{fill:#A67C52;}
	.st3{fill:#C69C6D;}
</style>
<rect x="0.5" class="st0" width="1280" height="799.5"/>
<rect y="475" class="st1" width="1280" height="326"/>
<g>
	<polygon class="st2" points="24.5,736.1 190.8,492.3 381.3,688.1 314.4,749.4 	"/>
	<polygon class="st3" points="190.8,492.3 314.4,749.4 381.3,688.1 	"/>
</g>
<g>
	<polygon class="st2" points="455,486.7 648.7,264 815,480.7 741.3,533.8 	"/>
	<polygon class="st3" points="648.7,264 741.3,533.8 815,480.7 	"/>
</g>
<g>
	<polygon class="st2" points="918,569.7 1111.7,347 1278,563.7 1204.3,616.8 	"/>
	<polygon class="st3" points="1111.7,347 1204.3,616.8 1278,563.7 	"/>
</g>
<g>
	<polygon class="st2" points="1123,647.3 1199.8,559 1265.8,645 1236.6,666 	"/>
	<polygon class="st3" points="1199.8,559 1236.6,666 1265.8,645 	"/>
</g>
</svg>
