<?xml version="1.0" encoding="utf-8"?>
<!-- Generator: Adobe Illustrator 21.1.0, SVG Export Plug-In . SVG Version: 6.00 Build 0)  -->
<svg version="1.1" xmlns="http://www.w3.org/2000/svg" xmlns:xlink="http://www.w3.org/1999/xlink" x="0px" y="0px"
	 viewBox="0 0 322.9 612" style="enable-background:new 0 0 322.9 612;" xml:space="preserve">
<style type="text/css">
	.st0{stroke:#000000;stroke-width:1.081;stroke-miterlimit:10;}
	.st1{fill:#8C6239;stroke:#000000;stroke-width:1.081;stroke-miterlimit:10;}
	.st2{fill:#333333;stroke:#000000;stroke-width:1.081;stroke-miterlimit:10;}
	.st3{fill:#006837;stroke:#000000;stroke-width:1.081;stroke-miterlimit:10;}
	.st4{fill:none;stroke:#000000;stroke-width:1.081;stroke-miterlimit:10;}
</style>
<g id="contour">
</g>
<g id="hat">
</g>
<g id="details">
</g>
<g id="Layer_4">
	<g>
		<path class="st0" d="M100.3,351.2c0,0-100.3,38.2-100.3,63.5V249.4L85.9,177C85.9,177,87.1,335.6,100.3,351.2z"/>
		<path class="st1" d="M0,449.9c0,0,72.1,18.4,121.2,60s88.9,33.5,88.9,33.5l-97.9-198.7l-8,7.7l-3.9-1.2c0,0-100.3,27.7-100.3,54.6
			V449.9z"/>
		<path class="st1" d="M200.7,113.2c0,0,21.6,8.6,24.5,12.3s37.5,77.8,37.5,77.8v46.1c0,0,20.2,37.5,15.9,47.6s-13,23.8-15.1,24.9
			c0,0,13.7,7.6,19.5,12.6c5.8,5,5.8,5,5.8,5l-4.3,14.4c0,0,5.8,2.2,4.3,6.5s-2.9,23.1-2.9,23.1l-5,3.6l2.9,4.3l2.2,25.2l-2.9,4.3
			l2.9,10.1l3.1,13l-10.3,15.9c0,0,0.7,13-2.2,20.2c-2.9,7.2-31.6,33.9-31.6,33.9h-59.9c0,0-34.6-10.8-45.4-44
			c-10.8-33.2-19.5-88.6-19.5-96.6c0-7.9,0-36,0-36l-15.9,15.1c0,0-32.4-10.1-34.6-12.3s-35.3-42.5-41.8-80.7s58.4-27.4,58.4-27.4
			l-5-49.7C81.1,182.4,93.3,85.1,200.7,113.2z"/>
		<path class="st0" d="M131.5,167.3c0,0,18,20.2,23.1,23.1c0,0-43.2,46.8-39.6,66.3s36,126.8,36,126.8l46.1,34.6l5-23.8l-7.9-4.3
			c0,0-2.9-7.9,5-13c7.9-5,51-38.2,51-38.2l3-16.9h10.1l25.2,17.7l-4.3,14.4c0,0-5.8-1.4-10.8,0l-5-3.6l-49,30.3l-1.4,37.5
			c0,0,50.4,25.9,53.3,31c0,0,8.6-10.8,14.4-18l8.6,28.8c0,0-4.6,36.8-5.5,42.5s0,23.8,0,23.8s-1,14.4-7.4,5.8s-12.3-18-12.3-18
			l-4.3,2.9l-2.9,5.8l-3.6,3.6c0,0-2.2,1.9,0,8.5s9.4,13.8,0,15.3c-9.4,1.4-21.6-2.9-21.6-7.2c0-4.3,4.3-5.8,1.4-11.5
			c-2.9-5.8-5-10.1-9.4-10.1s-10.8-4.3-9.4-1.4c1.4,2.9,4.3,13.5,13.7,30.6s8.6,26.4,13,33.6s1.9,2.9,4.2,11.5
			c2.3,8.6,7.1,15.1,0,13.7s-7.1,1.4-14.3-6.5c-7.2-7.9-8.6-7.2-10.8-19.5s0-23.1-2.9-32.4c-2.9-9.4-7.9-14.4-7.9-14.4
			s0,3.6-4.3,7.2s-2.2,6.5-12.3,3.6c-10.1-2.9-9.4,7.9-13.7-7.2c-4.3-15.1-4.3-14.4-6.5-18.7s-11.5-7.2-11.5-7.2
			s-56.2-19.5-57.7-83.6s0-82,0-82l11.5-11l-8.6-19.5l-7.2-6.9v-53.7c0,0-16.9-14.5-18-25.2C85,221.3,81.4,186,81.4,186
			S102.7,180.2,131.5,167.3z"/>
		<path class="st2" d="M63.4,230.8l130.1-26c0,0,18,4.3,37.8,4c0,0,4,5.1,7.2,9.1s5.8,2.8,5.8,2.8l11.2,1.1c0,0,2.9-13.7,5-14.8
			s2.2-1.1,2.2-1.1s1.8-2.2,5.4,1.8c3.6,4,8.6,9,15.5,12.6c0,0,5.3,23.5-6.1,63.4c0,0-17.4-41.1-23.4-51.9c0,0-9-2.2-10.5,2.9v41.1
			c0,0,1.1,12.3-17.3,15.9c0,0-19.1,7.2-27.5,0c-8.5-7.2-7.8-9.4-8.8-15.1c-1.1-5.8-2-57.8-2-57.8s-53.4,26-60.7,22.5
			s-14.1-10.8-25.2-7.9c-11.2,2.9-13.8,5.1-13.8,5.1l-2-6.2L63.4,230.8z"/>
		<path class="st0" d="M198.9,218.1c0,0,15.5-7.2,25.9-3.6c10.5,3.6,13.7,9.4,13.7,9.4v53.3c0,0-18.4,12.3-31.7,9.4
			c0,0-7.6-1.4-7.9-8.6C198.6,270.7,198.9,218.1,198.9,218.1z"/>
		<path class="st0" d="M262.7,223.8c0,0,4.3-7.2,9.4-4.7c5,2.5,7.2,11.5,7.2,11.5s-1.1,32.1-2.2,37.1c-1.1,5-3.1,6.1-3.1,6.1
			l-11.4-24.4V223.8z"/>
		<path class="st3" d="M81.4,186c0,0,51.2-5.7,158.6-94.7c0,0,41.1-35.3,67.7-31c0,0-27-18.7-105.2,38.6l-38.2-47.6
			c0,0-4.7-6.5-22-14.4c0,0-11.9-23.3-22.3-29.7c0,0-73.2-14.3-120,8.8v233.5c0,0,40.8-25.4,55.6-40.1C68.8,196.1,81.4,186,81.4,186
			z"/>
		<path class="st0" d="M208.3,116.4c0,0,14.8,6.3,16.4,8.5c1.6,2.2,19.5,38.9,19.5,38.9s80.9-42,78.7-71.4s-15.1-32.3-15.1-32.3
			S289.4,47.1,208.3,116.4z"/>
		<path class="st4" d="M27.3,21.9c0,0,42.1,53.5,54.1,63.2s35.9,39.5,38.6,45.9c2.7,6.5,0,16.8,0,18.4"/>
		<path class="st4" d="M31.9,15.9c0,0,44.9,26.5,60,34.1S133,65.6,133,65.6"/>
		<path class="st4" d="M142.3,36.8c0,0,8.5,28.6,14.1,34.8c5.7,6.2,28.9,31.9,28.9,31.9"/>
		<path class="st4" d="M202.5,98.8c0,0-94.1,59.3-108.5,66c0,0-12.5,5.5-12.6,21.1"/>
		<path class="st0" d="M229.2,317.2l23.8-15.7c0,0,6.8,6.2,9.7,5.9C262.7,307.5,256.7,315.9,229.2,317.2z"/>
		<path class="st4" d="M233.2,296.7c0,0-12.2,8.9-13.2,12.7s-1.5,14.6,0,16.2c2.4,2.6,5.4,3.5,22.4-2.2"/>
		<path class="st4" d="M99.2,272.1c0,0-10,7.8-11.4,7.8c-1.4,0-3.8-1.4-4.9-6.1s-3-14.2-3-14.2s-10.8,3-13.2,2.7L61.1,287
			c0,0,11.1,27.3,21.9,26.5c10.8-0.8,16.2-4.1,16.2-4.1l-4.3-3.5c0,0,5.4-6.6,5.4-11.1S99.2,272.1,99.2,272.1z"/>
		<path class="st4" d="M49.2,256.4c0,0-14.2,5.4,14.2,59.7c0,0-34.5-44.1-22.1-66"/>
		<path class="st4" d="M75.7,250.2c0,0-9.7,4.3-14.6,4.3c0,0-5.4,0.7-11.4-4.8"/>
		<path class="st4" d="M109.5,322.9l-21.1,5.8c0,0-3.5,3.1-5.1,6.9"/>
		<path class="st4" d="M219.2,386.7c0,0,20.9,16.3,37.3,26.9c8.4,5.4,15.6,9.3,18.3,8.8c0,0,10.8-6.4,10.5-10s-1.8-21-1.8-21
			l-10.4,3.4c0,0-18.6-9.2-40.5-10.3c0,0,12.7-6.5,19.6-7.6c0,0,7.1,8.1,10.4,8.9c3.2,0.8,18,1.2,18,1.2l5-3.6c0,0,0.7-14,2.9-23.1
			c0,0,1.8-10.2-15.1-6.5l-5-3.6l-49,30.3L219.2,386.7z"/>
		<path class="st0" d="M171.3,249.7c0,0,15.3-5.6,16.4-5.6s1.1,10.4,1.1,10.4S185.2,252.4,171.3,249.7z"/>
		<path class="st4" d="M174.1,240.8c0,0,6-4.3,14.1-6.3"/>
		<path class="st4" d="M170.3,262.7c0,0,12.1,10.6,19.8,15"/>
		<path class="st4" d="M177.7,225.4c0,0,9.9,2.9,10.3,7.9"/>
		<path class="st4" d="M132.4,281.3c0,0,15.4-14.3,33.5-14.1"/>
		<path class="st0" d="M258.3,414.7c0,0,6.5,18.8,6.2,21.7c0,0,1.6,1.9,4.1,1.6s7.6-2.7,9.2-4.9s5-12.3,5-12.3l2.9-4.3l-1.1-1.9
			c0,0-6.8,7.7-9.8,7.7C272.2,422.3,258.3,414.7,258.3,414.7z"/>
	</g>
</g>
</svg>
