<?xml version="1.0" encoding="utf-8"?>
<!-- Generator: Adobe Illustrator 21.1.0, SVG Export Plug-In . SVG Version: 6.00 Build 0)  -->
<svg version="1.1" xmlns="http://www.w3.org/2000/svg" xmlns:xlink="http://www.w3.org/1999/xlink" x="0px" y="0px"
	 viewBox="0 0 412.5 612" style="enable-background:new 0 0 412.5 612;" xml:space="preserve">
<style type="text/css">
	.st0{fill:#8C6239;stroke:#000000;stroke-width:0.9783;stroke-miterlimit:10;}
	.st1{stroke:#000000;stroke-width:1.0287;stroke-miterlimit:10;}
	.st2{fill:none;stroke:#000000;stroke-width:1.0287;stroke-miterlimit:10;}
	.st3{fill:#006837;stroke:#000000;stroke-width:1.0287;stroke-miterlimit:10;}
</style>
<g id="contour">
</g>
<g id="details">
</g>
<g id="lips">
	<g>
		<path class="st0" d="M86.6,166.7c0,0,1-33.7,5.7-65.8c0,0,41.1-30.9,46.3-29.8c0,0,9.3-5.1,23.1-5.1c13.9,0,57.1-4.1,83.3,4.6
			s119.3,79.2,119.3,79.2l11.8,52.5v5.7c0,0-11.3,11.3-18,13.9c0,0,3.1,28.3,0,63.3c0,0,19.5,11.8,27.8,21.1
			c0,0-14.9,74.1-124.5,121.9s-150.7-17.5-150.7-17.5l-12.3-29.8l-4.6-17l4.1-16.5l-2.6-14.9l-2.6-15.9v-25.2l4.6-4.1L86.6,283
			c0,0-9.8-9.8-7.7-15.9c2.1-6.2-2.6-3.6,18.5-29.8c0,0-5.1-4.4-6.7-8.5c-1.5-4.1-2.6-7.2,1-19.3s-0.5-21.6-0.5-21.6
			s-3.3-7.7,0-16.2L86.6,166.7z"/>
		<path class="st1" d="M138.5,71.1c0,0,63.5,13.4,93.7,29.1c0,0-11.6,51.4-8.9,61.7c0,0,12.3,13,27.4,17.8c0,0,17.8,66.6,17.8,75.5
			c0,0-43.9,82.9-76.8,104.2c0,0-4.1,6.2-2.7,13.7l-26.7-52.8l-37.7-8.9l-4.8-16.5c0,0-6.2,1.4-8.2,0.7c-2.1-0.7-14.2-8.6-14.2-8.6
			l-4.6,4.1c0,0-1,26.4,0.3,30.5c0.3,1.1,0.7,2.3,1.2,3.5l62,16.4l10.3,61c0,0-13.4-6.2-55.7,7.9c0,0-8.4-18.2-17-46.8l4.1-16.5
			c0,0-7.2-28.3-5.1-36.5c2.1-8.2-5.8,7.5-9.3,19.2s-3,18.2-4.9,27.4c-1.9,9.3-8.5,20.2-5,42.5s5.9,30.9,5,32.6
			c-0.9,1.7,0.1,4.8,3.5,4.1c3.4-0.7,3.4-3.8,4.5-5.1c1-1.4,1-1.4,1-1.4s6.9,24.7,24,48c0,0-5.1,12-7.9,13.4
			c-2.7,1.4-11.3-4.1-14.7-2.1c-3.4,2.1-5.8,1.7-7.2,6.9c-1.4,5.1-5.5,23.3-5.5,25.7s0.5,6.2,2.3,7.5s4.9,3.8,8.7,2.7
			c3.8-1,6.9-2.7,6.9-4.8s-1-4.1-0.7-7.5c0.3-3.4-1.4-6.2,1.4-5.8s0,2.1,6.5,2.1s16.5-6.2,17.8-7.9s5.1-15.4,5.8-19.9
			c0,0,7.9,6.5,15.8,8.6c0,0,2.4,11.7-1.4,22.3c-3.8,10.6-10.3,29.1-10.3,34.6c0,5.5,3.4,17.1,5.1,18.9c1.7,1.7,8.9-3.1,9.6-5.1
			c0.7-2.1-0.3-6.5-1-8.9c-0.7-2.4-4.5-7.2-3.1-12.7c1.4-5.5,2.7-6.2,5.1-13c2.4-6.9,2.7-9.9,2.7-13.4s-1-6.9,0-8.9
			c1-2.1,2.7-3.8,3.4-2.7c0.7,1,2.4,13,2.4,13s-3.8,27.4-4.8,34.3c-1,6.9-5.5,15.4-5.1,24c0.3,8.6-1,12.1,0.3,16.8
			c1.4,4.8,5.8,9.9,9.3,11.3c3.4,1.4,10.6,0.7,13.7-1.4c3.1-2.1,5.1-5.9,6.2-7.9c1-2,1.1-10.3-2.4-19.2c0,0,13-31.2,11.6-33.3
			s-6.2-13.7-7.2-14.4s6.5-36,6.5-38.7c0,0,18.2-4.8,24-11.7l2.1,1.7l-3.4,6.9c0,0,3.8,12.7,6.2,14.1s5.1,2.4,7.2,0.3
			c0,0,94.3-96,97.7-222.9l-8.2-7.2c0,0-11.7,3.4-13.7,0c-2.1-3.4-16.5-42.5-17.8-84.3l39.8-24.7l21.3,2.1l-3.4,79.5
			c0,0,26.6,5,26.3,14.5c0,0,3.2-21.7-1.3-39c0,0,14.4-9.8,18-13.9c3.6-4.1-11.8-58.1-11.8-58.1s-97-71.1-119.3-79.2
			S162.7,61.8,138.5,71.1z"/>
		<path class="st1" d="M196.6,64.3c0,0-100.7-21-124.1-21S6,43.3,1.2,59.8s5.5,37,18.5,44.6c13,7.5,26.7,12.7,70.3,14.6l8.3-15.3
			L196.6,64.3z"/>
		<path class="st1" d="M128.8,171.2c0,0,42.2-13.7,49-18.9c0,0,34.6,19.2,34.3,20.9c-0.3,1.7-1.4,5.1-4.1,4.5
			c-2.7-0.7-23.3-14.4-26.7-14.7c-3.4-0.3-45.6,20.9-47.3,21.9C133.9,184.9,122.6,180.1,128.8,171.2z"/>
		<path class="st1" d="M144.9,224c0,0,6.9-3.1,12.7-5.5s11.3-5.5,22.3,0c11,5.5,16.8,5.5,16.8,5.5s-15.8,9.9-25.9,9.9
			S144.9,224,144.9,224z"/>
		<path class="st1" d="M124.6,287.4c0,0-8.2-0.3-14.7-2.7c-6.5-2.4-11.3-9.3-11.3-11s4.1-2.7,6.9-2.4c2.7,0.3,21.6,6.1,25.5,8
			c4,1.9,2.9,2.9,2.6,4C133.2,284.3,124.6,287.4,124.6,287.4z"/>
		<path class="st1" d="M98.4,380.7c0,0,10.5-0.3,20.7-4.1c0,0,9.9,17.8,8.9,19.9s-19.2,8.3-19.5,8.2S100.3,398.9,98.4,380.7z"/>
		<path class="st2" d="M100,318.3c0,0-1,2.7,23.7,9.6s29.8,6,31.9,8.3c2.1,2.3,2.7,9.2-3.4,16.7c-6.2,7.5-28.3,28.9-53.7,27.8
			c0,0-3.3,0-4.3-4.1c-1-4.1-5.1-14.7-5.1-14.7s2.1-10.1,5.5-12.3c0,0-5.5-2.4-5.5-4.8c0-2.4-0.2-21.9,1.7-24L100,318.3z"/>
		<path class="st1" d="M92.1,222.1c0,0,8.2-3.4,12-4.5c0,0-1.4,7.4-3.1,9.6C101,227.3,99.3,226.9,92.1,222.1z"/>
		<path class="st2" d="M138.7,209.9c0,0-2.7-12,6.2-25"/>
		<path class="st2" d="M143.2,267.9c0,0,7.9,6.5,5.8,13.4c-2.1,6.9-12.3,11-12.3,11"/>
		<path class="st2" d="M288.5,191.8c0,0,31.5-26.1,37.7-15.1c6.2,11,2.1,50.6,2.1,50.6"/>
		<path class="st2" d="M311.2,190c0,0,16.8,9.3,11,55.2"/>
		<path class="st2" d="M287.2,197.4c0,0-3.8,19.4,7.9,25c0,0,3.5,0.2-4.2,9.8c0,0-4,6.2-2.3,15.4"/>
		<path class="st2" d="M292.7,215.4c0,0,26.4-19.9,22.3,32.2"/>
		<path class="st2" d="M315.4,238.4c0,0-3.2,6.2-22.7,5.1"/>
		<path class="st2" d="M291.2,201.7c4.9-1,3.8,1.2,9-1.1c5.1-2.3,4.8-0.3,6.5-3.2"/>
		<path class="st2" d="M299,252.8c0,0-10.6,7.7-9.7,10.3"/>
		<path class="st2" d="M143,215.4c0,0,11.1-22.5,27.8-15.9s15.9,12.1,34.5,15.9"/>
		<path class="st2" d="M210.7,220.2c-1.7,1-14.1,3.8-14.1,3.8s10.3,0.3,14.1,3.3"/>
		<path class="st2" d="M152.1,345c0,0-14.9,2.1-23.9,2.1c0,0-32.5-1.5-26.8,26.4"/>
		<path class="st2" d="M104.1,354.6c0,0-5.2-3.3-6.2-7.4"/>
		<path class="st2" d="M336.1,246.9c0,0,2.1,3.7,0,5.9c-2.1,2.1-18.8,15.1-18.8,15.1l6.1-18.9"/>
		<path class="st2" d="M307.1,273.7c0,0,6.1-0.5,8.3-1l1.9-4.8"/>
		<g>
			<path class="st3" d="M376.1,207.9c0,0,37-34.6,30.9-115.7c0,0-25.2-43.2-32.9-48.9c0,0,10.3-21.6-21.1-25.2
				c0,0-40.6-0.7-58.1-7.1s-51.9-14.5-79.7,6c0,0-46.8-15.9-63.3-2.6s-20.9,37-20.9,37l65.7,12.8c0,0,31.7-4.2,61.9,13.1
				s105.8,72.3,105.8,72.3S376.7,198.6,376.1,207.9z"/>
			<path class="st2" d="M215.2,17.1c0,0-2.3,1.3-18.5,12.9s-30.3,7.5-30.3,7.5"/>
			<path class="st2" d="M242.5,11.1c0,0-7.1,11.8-10.3,27S223.1,65,223.1,65"/>
			<path class="st2" d="M353,18.1c0,0,21.6,12.6-40.1,93.9"/>
			<path class="st2" d="M374.1,43.3c0,0,3.2-2.8-17.4,28.3"/>
		</g>
		<path class="st2" d="M91.2,171.6c0,0,15.4,4.9,15.4,20.6s-1.8,30.6-9.3,45"/>
	</g>
</g>
</svg>
